<svg width="24" height="22" viewBox="0 0 24 22" fill="none" xmlns="http://www.w3.org/2000/svg">
<path d="M18.1111 1.59082H19.2C20.9913 1.59082 21.887 1.59082 22.4435 2.14732C23 2.70381 23 3.59948 23 5.39082V6.34082M18.1111 20.5908H19.2C20.9913 20.5908 21.887 20.5908 22.4435 20.0343C23 19.4778 23 18.5822 23 16.7908V15.8408M5.88889 1.59082H4.8C3.00866 1.59082 2.11299 1.59082 1.5565 2.14732C1 2.70381 1 3.59948 1 5.39082V6.34082M5.88889 20.5908H4.8C3.00866 20.5908 2.11299 20.5908 1.5565 20.0343C1 19.4778 1 18.5822 1 16.7908V15.8408" stroke="#222222" stroke-width="2" stroke-linecap="round"/>
<path d="M12.0039 5.40649C16.6243 5.40661 18.9598 8.48992 19.917 10.2512C20.1665 10.7103 20.291 10.9402 20.291 11.4485C20.291 11.9568 20.1665 12.1867 19.917 12.6458C18.9598 14.407 16.6243 17.4904 12.0039 17.4905C7.38314 17.4905 5.04697 14.407 4.08984 12.6458C3.84038 12.1867 3.71582 11.9568 3.71582 11.4485C3.71583 10.9402 3.84038 10.7103 4.08984 10.2512C5.04698 8.48993 7.38319 5.40649 12.0039 5.40649ZM12.0039 7.82349C10.0019 7.82349 8.37891 9.44645 8.37891 11.4485C8.37892 13.4505 10.0019 15.0735 12.0039 15.0735C14.0058 15.0734 15.6289 13.4504 15.6289 11.4485C15.6289 9.44651 14.0059 7.82358 12.0039 7.82349Z" fill="#222222"/>
</svg>
