<svg width="34" height="34" viewBox="0 0 34 34" fill="none" xmlns="http://www.w3.org/2000/svg">
<path d="M17 4.25C20.4903 4.25 22.2356 4.25003 23.6426 4.72754C26.2921 5.62693 28.3731 7.7079 29.2725 10.3574C29.75 11.7644 29.75 13.5097 29.75 17V23.75C29.75 26.5784 29.7498 27.9924 28.8711 28.8711C27.9924 29.7498 26.5784 29.75 23.75 29.75H17C13.5097 29.75 11.7644 29.75 10.3574 29.2725C7.7079 28.3731 5.62693 26.2921 4.72754 23.6426C4.25003 22.2356 4.25 20.4903 4.25 17C4.25 13.5097 4.25003 11.7644 4.72754 10.3574C5.62693 7.7079 7.7079 5.62693 10.3574 4.72754C11.7644 4.25003 13.5097 4.25 17 4.25ZM17 20.25C16.4477 20.25 16 20.6977 16 21.25C16 21.8023 16.4477 22.25 17 22.25H21.25C21.8023 22.25 22.25 21.8023 22.25 21.25C22.25 20.6977 21.8023 20.25 21.25 20.25H17ZM12.75 14.583C12.1978 14.583 11.7502 15.0309 11.75 15.583C11.75 16.1353 12.1977 16.583 12.75 16.583H21.25C21.8023 16.583 22.25 16.1353 22.25 15.583C22.2498 15.0309 21.8022 14.583 21.25 14.583H12.75Z" fill="#FAF7F0"/>
</svg>
