<svg width="25" height="33" viewBox="0 0 25 33" fill="none" xmlns="http://www.w3.org/2000/svg">
<mask id="path-1-inside-1_560_1244" fill="white">
<path d="M12.5 0.48877C18.8513 0.48877 24 5.63847 24 11.9897C23.9997 20.5523 14.9203 25.572 12.8965 26.5845C12.642 26.7117 12.358 26.7117 12.1035 26.5845C10.0797 25.572 1.00034 20.5523 1 11.9897C1 5.63847 6.14873 0.48877 12.5 0.48877ZM12.5 7.06104C9.77803 7.06104 7.57129 9.26777 7.57129 11.9897C7.57155 14.7115 9.77819 16.9175 12.5 16.9175C15.2218 16.9175 17.4284 14.7115 17.4287 11.9897C17.4287 9.26777 15.222 7.06104 12.5 7.06104Z"/>
</mask>
<path d="M12.5 0.48877C18.8513 0.48877 24 5.63847 24 11.9897C23.9997 20.5523 14.9203 25.572 12.8965 26.5845C12.642 26.7117 12.358 26.7117 12.1035 26.5845C10.0797 25.572 1.00034 20.5523 1 11.9897C1 5.63847 6.14873 0.48877 12.5 0.48877ZM12.5 7.06104C9.77803 7.06104 7.57129 9.26777 7.57129 11.9897C7.57155 14.7115 9.77819 16.9175 12.5 16.9175C15.2218 16.9175 17.4284 14.7115 17.4287 11.9897C17.4287 9.26777 15.222 7.06104 12.5 7.06104Z" fill="#FAF7F0"/>
<path d="M12.5 0.48877L12.5 -0.51123L12.5 -0.51123L12.5 0.48877ZM24 11.9897L25 11.9898V11.9897H24ZM12.8965 26.5845L13.3435 27.479L13.3439 27.4788L12.8965 26.5845ZM12.1035 26.5845L11.6561 27.4788L11.6565 27.479L12.1035 26.5845ZM1 11.9897L-8.11283e-10 11.9897L8.11283e-10 11.9898L1 11.9897ZM7.57129 11.9897L6.57129 11.9897L6.57129 11.9898L7.57129 11.9897ZM17.4287 11.9897L18.4287 11.9898V11.9897H17.4287ZM12.5 0.48877V1.48877C18.2989 1.48877 23 6.19065 23 11.9897H24H25C25 5.0863 19.4037 -0.51123 12.5 -0.51123V0.48877ZM24 11.9897L23 11.9897C22.9998 15.8945 20.9318 19.0478 18.5101 21.4013C16.0915 23.7517 13.4175 25.2057 12.4491 25.6901L12.8965 26.5845L13.3439 27.4788C14.3993 26.9508 17.2769 25.3887 19.904 22.8355C22.528 20.2854 24.9998 16.6476 25 11.9898L24 11.9897ZM12.8965 26.5845L12.4495 25.6899C12.4569 25.6863 12.4749 25.6799 12.5 25.6799C12.5251 25.6799 12.5431 25.6863 12.5505 25.6899L12.1035 26.5845L11.6565 27.479C12.1925 27.7468 12.8076 27.7468 13.3435 27.479L12.8965 26.5845ZM12.1035 26.5845L12.5509 25.6901C11.5825 25.2057 8.90846 23.7517 6.48988 21.4013C4.0682 19.0478 2.00016 15.8945 2 11.9897L1 11.9897L8.11283e-10 11.9898C0.000187623 16.6476 2.47198 20.2854 5.09601 22.8355C7.72314 25.3887 10.6007 26.9508 11.6561 27.4788L12.1035 26.5845ZM1 11.9897H2C2 6.19065 6.70112 1.48877 12.5 1.48877L12.5 0.48877L12.5 -0.51123C5.59633 -0.51123 0 5.0863 0 11.9897H1ZM12.5 7.06104V6.06104C9.22574 6.06104 6.57129 8.71549 6.57129 11.9897H7.57129H8.57129C8.57129 9.82006 10.3303 8.06104 12.5 8.06104V7.06104ZM7.57129 11.9897L6.57129 11.9898C6.57161 15.264 9.22606 17.9175 12.5 17.9175V16.9175V15.9175C10.3303 15.9175 8.5715 14.159 8.57129 11.9896L7.57129 11.9897ZM12.5 16.9175V17.9175C15.7739 17.9175 18.4284 15.264 18.4287 11.9898L17.4287 11.9897L16.4287 11.9896C16.4285 14.159 14.6697 15.9175 12.5 15.9175V16.9175ZM17.4287 11.9897H18.4287C18.4287 8.71549 15.7743 6.06104 12.5 6.06104V7.06104V8.06104C14.6697 8.06104 16.4287 9.82006 16.4287 11.9897H17.4287Z" fill="#FAF7F0" mask="url(#path-1-inside-1_560_1244)"/>
<path d="M22.4593 24.4995C23.4686 25.2596 24 26.1218 24 26.9995C24 27.8772 23.4686 28.7394 22.4593 29.4995C21.45 30.2596 19.9982 30.8908 18.25 31.3296C16.5018 31.7685 14.5187 31.9995 12.5 31.9995C10.4813 31.9995 8.49822 31.7685 6.75 31.3296C5.00178 30.8908 3.55004 30.2596 2.54071 29.4995C1.53137 28.7394 1 27.8772 1 26.9995C1 26.1218 1.53137 25.2596 2.54071 24.4995" stroke="#FAF7F0" stroke-width="2" stroke-linecap="round"/>
</svg>
