<svg width="303" height="127" viewBox="0 0 303 127" fill="none" xmlns="http://www.w3.org/2000/svg">
<path d="M113.143 47.7417C115.649 40.9868 117.157 34.8053 117.763 33.3299C110.609 36.4718 105.052 37.2139 100.369 36.7784C98.318 39.1159 95.316 40.5913 91.9735 40.5913C86.1241 40.5913 81.3226 36.0807 80.8186 30.3302C76.2072 29.1214 71.1138 29.2103 64.199 32.8633C64.2078 32.921 64.2122 32.9744 64.2211 33.0321C67.9968 40.1469 72.228 46.9773 77.2771 53.2922C81.5481 55.9452 86.5839 57.4784 91.9735 57.4784C100.431 57.474 108.005 53.701 113.143 47.7417Z" fill="#DA8B45"/>
<path d="M119.828 31.6367C119.814 31.6456 119.805 31.6545 119.797 31.6634C114.593 28.0371 110.057 26.5884 105.94 26.4373C104.866 26.3973 103.836 26.4506 102.841 26.5662C103.036 27.3972 103.142 28.2593 103.142 29.1481C103.142 35.3652 98.1279 40.4047 91.9425 40.4047C87.9545 40.4047 84.4529 38.3071 82.4677 35.1475C79.8194 36.0718 76.9853 36.5695 73.7622 36.2185C69.5001 35.7563 66.1885 34.0009 64.1724 32.6988C64.4289 34.7519 64.9108 36.734 65.5872 38.6226H65.4767L92.0044 108.54C93.5828 103.251 94.8606 98.7185 118.532 38.6226H118.307C119.089 36.4096 119.615 34.0676 119.828 31.6367Z" fill="url(#paint0_linear_813_1415)"/>
<path d="M96.7131 121.409C96.7131 123.942 94.5997 126 91.9956 126C89.3914 126 87.2781 123.947 87.2781 121.409C87.2781 118.876 91.9956 110.322 91.9956 110.322C91.9956 110.322 96.7131 118.876 96.7131 121.409Z" fill="url(#paint1_linear_813_1415)"/>
<path d="M113.143 47.7417C115.649 40.9868 117.157 34.8053 117.763 33.3299C110.609 36.4718 105.052 37.2139 100.369 36.7784C98.318 39.1159 95.316 40.5913 91.9735 40.5913C86.1241 40.5913 81.3226 36.0807 80.8186 30.3302C76.2072 29.1214 71.1138 29.2103 64.199 32.8633C64.2078 32.921 64.2122 32.9744 64.2211 33.0321C67.9968 40.1469 72.228 46.9773 77.2771 53.2922C81.5481 55.9452 86.5839 57.4784 91.9735 57.4784C100.431 57.474 108.005 53.701 113.143 47.7417Z" stroke="url(#paint2_linear_813_1415)" stroke-miterlimit="10"/>
<path d="M92 57.2873C107.464 57.2873 120 44.687 120 29.1437C120 13.6003 107.464 1 92 1C76.536 1 64 13.6003 64 29.1437C64 44.687 76.536 57.2873 92 57.2873Z" stroke="url(#paint3_linear_813_1415)" stroke-miterlimit="10"/>
<path d="M92 40.4002C98.1851 40.4002 103.199 35.3605 103.199 29.1437C103.199 22.9268 98.1851 17.8871 92 17.8871C85.8149 17.8871 80.8009 22.9268 80.8009 29.1437C80.8009 35.3605 85.8149 40.4002 92 40.4002Z" stroke="url(#paint4_linear_813_1415)" stroke-miterlimit="10"/>
<path d="M119.828 31.6367C119.814 31.6456 119.805 31.6545 119.797 31.6634C114.593 28.0371 110.057 26.5884 105.94 26.4373C104.866 26.3973 103.836 26.4506 102.841 26.5662C103.036 27.3972 103.142 28.2593 103.142 29.1481C103.142 35.3652 98.1279 40.4047 91.9425 40.4047C87.9545 40.4047 84.4529 38.3071 82.4677 35.1475C79.8194 36.0718 76.9853 36.5695 73.7622 36.2185C69.5001 35.7563 66.1885 34.0009 64.1724 32.6988C64.4289 34.7519 64.9108 36.734 65.5872 38.6226H65.4767L92.0044 108.54C93.5828 103.251 94.8606 98.7185 118.532 38.6226H118.307C119.089 36.4096 119.615 34.0676 119.828 31.6367Z" stroke="url(#paint5_linear_813_1415)" stroke-miterlimit="10"/>
<path d="M96.7131 121.409C96.7131 123.942 94.5997 126 91.9956 126C89.3914 126 87.2781 123.947 87.2781 121.409C87.2781 118.876 91.9956 110.322 91.9956 110.322C91.9956 110.322 96.7131 118.876 96.7131 121.409Z" stroke="url(#paint6_linear_813_1415)" stroke-miterlimit="10"/>
<path d="M9.728 108C9.30133 108 8.91733 107.872 8.576 107.616C8.32 107.275 8.192 106.891 8.192 106.464V19.936C8.192 19.5093 8.32 19.168 8.576 18.912C8.91733 18.5707 9.30133 18.4 9.728 18.4H21.504C21.9307 18.4 22.272 18.5707 22.528 18.912C22.8693 19.168 23.04 19.5093 23.04 19.936V94.56C23.04 94.9867 23.2533 95.2 23.68 95.2H58.88C59.3067 95.2 59.648 95.3707 59.904 95.712C60.2453 95.968 60.416 96.3093 60.416 96.736V106.464C60.416 106.891 60.2453 107.275 59.904 107.616C59.648 107.872 59.3067 108 58.88 108H9.728Z" fill="#FAF7F0"/>
<path d="M134.728 110C134.301 110 133.917 109.872 133.576 109.616C133.32 109.275 133.192 108.891 133.192 108.464V21.936C133.192 21.5093 133.32 21.168 133.576 20.912C133.917 20.5707 134.301 20.4 134.728 20.4H146.504C146.931 20.4 147.272 20.5707 147.528 20.912C147.869 21.168 148.04 21.5093 148.04 21.936V108.464C148.04 108.891 147.869 109.275 147.528 109.616C147.272 109.872 146.931 110 146.504 110H134.728ZM208.977 21.936C208.977 21.5093 209.105 21.168 209.361 20.912C209.702 20.5707 210.086 20.4 210.513 20.4H222.289C222.716 20.4 223.057 20.5707 223.313 20.912C223.654 21.168 223.825 21.5093 223.825 21.936V108.464C223.825 108.891 223.654 109.275 223.313 109.616C223.057 109.872 222.716 110 222.289 110H209.873C209.105 110 208.508 109.616 208.081 108.848L180.177 51.504C180.006 51.248 179.836 51.1627 179.665 51.248C179.494 51.248 179.409 51.4187 179.409 51.76L179.537 108.464C179.537 108.891 179.366 109.275 179.025 109.616C178.769 109.872 178.428 110 178.001 110H166.225C165.798 110 165.414 109.872 165.073 109.616C164.817 109.275 164.689 108.891 164.689 108.464V21.936C164.689 21.5093 164.817 21.168 165.073 20.912C165.414 20.5707 165.798 20.4 166.225 20.4H178.513C179.366 20.4 179.964 20.784 180.305 21.552L208.337 79.152C208.508 79.408 208.678 79.536 208.849 79.536C209.02 79.4507 209.105 79.2373 209.105 78.896L208.977 21.936ZM242.103 110C241.676 110 241.292 109.872 240.951 109.616C240.695 109.275 240.567 108.891 240.567 108.464V21.936C240.567 21.5093 240.695 21.168 240.951 20.912C241.292 20.5707 241.676 20.4 242.103 20.4H253.879C254.306 20.4 254.647 20.5707 254.903 20.912C255.244 21.168 255.415 21.5093 255.415 21.936V58.8C255.415 59.056 255.5 59.2267 255.671 59.312C255.842 59.3973 256.012 59.312 256.183 59.056L282.423 21.424C282.85 20.7413 283.447 20.4 284.215 20.4H297.143C297.74 20.4 298.124 20.6133 298.295 21.04C298.551 21.3813 298.508 21.808 298.167 22.32L273.975 58.288C273.89 58.544 273.89 58.8427 273.975 59.184L299.959 108.208C300.13 108.549 300.215 108.805 300.215 108.976C300.215 109.659 299.788 110 298.935 110H285.879C285.026 110 284.386 109.616 283.959 108.848L263.735 70.704C263.65 70.448 263.522 70.32 263.351 70.32C263.18 70.32 263.01 70.4053 262.839 70.576L255.671 80.432C255.5 80.7733 255.415 81.0293 255.415 81.2V108.464C255.415 108.891 255.244 109.275 254.903 109.616C254.647 109.872 254.306 110 253.879 110H242.103Z" fill="#FAF7F0"/>
<defs>
<linearGradient id="paint0_linear_813_1415" x1="92" y1="1" x2="92" y2="126" gradientUnits="userSpaceOnUse">
<stop stop-color="#F59E75"/>
<stop offset="0.913462"/>
</linearGradient>
<linearGradient id="paint1_linear_813_1415" x1="92" y1="1" x2="92" y2="126" gradientUnits="userSpaceOnUse">
<stop stop-color="#F59E75"/>
<stop offset="0.913462"/>
</linearGradient>
<linearGradient id="paint2_linear_813_1415" x1="92" y1="1" x2="92" y2="126" gradientUnits="userSpaceOnUse">
<stop stop-color="#F59E75"/>
<stop offset="0.913462"/>
</linearGradient>
<linearGradient id="paint3_linear_813_1415" x1="92" y1="1" x2="92" y2="126" gradientUnits="userSpaceOnUse">
<stop stop-color="#F59E75"/>
<stop offset="0.913462"/>
</linearGradient>
<linearGradient id="paint4_linear_813_1415" x1="92" y1="1" x2="92" y2="126" gradientUnits="userSpaceOnUse">
<stop stop-color="#F59E75"/>
<stop offset="0.913462"/>
</linearGradient>
<linearGradient id="paint5_linear_813_1415" x1="92" y1="1" x2="92" y2="126" gradientUnits="userSpaceOnUse">
<stop stop-color="#F59E75"/>
<stop offset="0.913462"/>
</linearGradient>
<linearGradient id="paint6_linear_813_1415" x1="92" y1="1" x2="92" y2="126" gradientUnits="userSpaceOnUse">
<stop stop-color="#F59E75"/>
<stop offset="0.913462"/>
</linearGradient>
</defs>
</svg>
