<svg width="40" height="41" viewBox="0 0 40 41" fill="none" xmlns="http://www.w3.org/2000/svg">
<path d="M18.333 7.15674C24.7762 7.15674 29.9998 12.3796 30 18.8228C30 25.2661 24.7763 30.4897 18.333 30.4897C11.8898 30.4896 6.66699 25.266 6.66699 18.8228C6.66717 12.3797 11.8899 7.15691 18.333 7.15674ZM18.334 11.1567C17.4532 11.1567 16.5796 11.309 15.752 11.605L15.3994 11.7407C14.5857 12.0778 13.8368 12.5519 13.1855 13.1421L12.9121 13.4019C12.2892 14.0247 11.7792 14.7499 11.4033 15.5444L11.251 15.8892C10.8657 16.8193 10.667 17.817 10.667 18.8237L10.6719 18.9253C10.7231 19.4296 11.1492 19.8237 11.667 19.8237C12.2189 19.8236 12.6666 19.3756 12.667 18.8237C12.667 18.0796 12.8139 17.3423 13.0986 16.6548L13.2109 16.3999C13.4888 15.8126 13.8667 15.2773 14.3271 14.8169L14.5283 14.6245C15.0098 14.1882 15.5634 13.8376 16.165 13.5884L16.4248 13.4878C17.0366 13.2689 17.6828 13.1567 18.334 13.1567C18.8859 13.1564 19.3338 12.7087 19.334 12.1567C19.334 11.6047 18.886 11.1571 18.334 11.1567Z" fill="#FAF7F0"/>
<path d="M33.3333 33.8231L30 30.4897" stroke="#FAF7F0" stroke-width="2" stroke-linecap="round"/>
</svg>
