<svg width="38" height="38" viewBox="0 0 38 38" fill="none" xmlns="http://www.w3.org/2000/svg">
<path d="M19 26.333C20.8711 26.333 22.6904 26.9508 24.1748 28.0898L24.4482 28.3086C25.7007 29.3544 26.6254 30.7395 27.1123 32.2969L27.1865 32.5537C24.7976 33.9998 21.9964 34.833 19 34.833C16.0033 34.833 13.2016 34 10.8125 32.5537C11.3065 30.7793 12.3628 29.2121 13.8252 28.0898L14.1074 27.8818C15.5373 26.8755 17.2458 26.333 19 26.333ZM19 3.16699C27.7445 3.16699 34.833 10.2555 34.833 19C34.833 23.9955 32.5183 28.4487 28.9043 31.3506C28.2779 29.5692 27.1825 27.9866 25.7295 26.7734L25.3916 26.5029C23.5579 25.096 21.3113 24.333 19 24.333C16.8333 24.333 14.7232 25.0032 12.957 26.2461L12.6084 26.5029C10.9869 27.7472 9.76869 29.4342 9.09473 31.3516C5.48081 28.4497 3.16699 23.9955 3.16699 19C3.16699 10.2555 10.2555 3.16699 19 3.16699ZM19 8.5C15.8244 8.5 13.25 11.0744 13.25 14.25C13.25 17.4256 15.8244 20 19 20C22.1756 20 24.75 17.4256 24.75 14.25C24.75 11.0744 22.1756 8.5 19 8.5ZM19 10.5C21.0711 10.5 22.75 12.1789 22.75 14.25C22.75 16.3211 21.0711 18 19 18C16.9289 18 15.25 16.3211 15.25 14.25C15.25 12.1789 16.9289 10.5 19 10.5Z" fill="#FAF7F0"/>
<rect x="3.66675" y="3.66663" width="30.6667" height="30.6667" rx="15.3333" stroke="#FAF7F0"/>
</svg>
